<?xml version="1.0" encoding="utf-8"?>
<!-- Generator: Adobe Illustrator 23.0.5, SVG Export Plug-In . SVG Version: 6.00 Build 0)  -->
<svg version="1.1" id="Capa_1" xmlns="http://www.w3.org/2000/svg" xmlns:xlink="http://www.w3.org/1999/xlink" x="0px" y="0px"
	 viewBox="0 0 72.58 72.58" style="enable-background:new 0 0 72.58 72.58;" xml:space="preserve">
<style type="text/css">
	.st0{fill:#D77A0F;}
</style>
<path class="st0" d="M8.69,39.36h27.08v27.08L8.69,39.36z M39.36,39.36h29.62v29.62H39.36V39.36z M39.36,8.69l27.07,27.07H39.36
	V8.69z M35.76,0v35.76H0l36.82,36.82h35.77V36.82L35.76,0z"/>
<rect x="30.68" y="52.37" transform="matrix(0.7072 -0.707 0.707 0.7072 -22.4392 54.1581)" class="st0" width="46.98" height="3.6"/>
<rect x="30.68" y="19.15" transform="matrix(0.7072 -0.707 0.707 0.7072 1.0495 44.4347)" class="st0" width="46.99" height="3.6"/>
<rect x="19.15" y="-2.55" transform="matrix(0.7071 -0.7071 0.7071 0.7071 -8.6775 20.9494)" class="st0" width="3.6" height="46.99"/>
<polygon class="st0" points="2.54,20.95 2.55,2.54 20.95,2.54 20.95,6.14 6.14,6.14 6.13,20.95 "/>
</svg>
