<?xml version="1.0" encoding="utf-8"?>
<!-- Generator: Adobe Illustrator 23.0.5, SVG Export Plug-In . SVG Version: 6.00 Build 0)  -->
<svg version="1.1" id="Capa_1" xmlns="http://www.w3.org/2000/svg" xmlns:xlink="http://www.w3.org/1999/xlink" x="0px" y="0px"
	 viewBox="0 0 141.78 71.84" style="enable-background:new 0 0 141.78 71.84;" xml:space="preserve">
<style type="text/css">
	.st0{fill:#FFFFFF;}
</style>
<g>
	<g>
		<path class="st0" d="M98.08,23.48L98.08,23.48L91.63,8.95v0L94.71,2h12.91L98.08,23.48z M87.25,47.85
			c-0.57,1.25-1.52,2.03-2.48,2.03H55.95c-0.96,0-1.91-0.77-2.48-2.02L33.09,2H46l17.72,39.88l0.03-0.01l-0.02,0.01
			c1.17,2.61,3.77,4.29,6.63,4.29c1.03,0,2.03-0.22,2.97-0.64c1.63-0.73,2.93-2.04,3.66-3.67l5.99-13.47l6.46,14.53L87.25,47.85z
			 M65.55,10.82L65.55,10.82c0.51-1.14,1.42-2.1,2.65-2.66c0.7-0.31,1.44-0.46,2.16-0.46c2.01,0,3.93,1.16,4.8,3.11v0l6.73,15.13
			l-6.72,15.12v0c-0.51,1.14-1.42,2.1-2.65,2.66c-0.7,0.31-1.43,0.46-2.16,0.46c-2.01,0-3.93-1.16-4.81-3.11v0l-6.72-15.13
			L65.55,10.82z M116.47,51.87h17.29L110.7,0H93.41l-2.88,6.48l-1.46-3.28C88.21,1.29,86.61,0,84.77,0H55.95
			c-1.83,0-3.44,1.28-4.3,3.2l-1.46,3.29L47.3,0H30.01L6.96,51.87h17.29l14.41-32.42l2.88,6.48L30.01,51.87H47.3l2.88-6.48
			l1.46,3.29c0.87,1.91,2.47,3.2,4.3,3.2h28.82c1.84,0,3.44-1.29,4.31-3.21l1.46-3.27l2.88,6.48h17.29L99.18,25.94l2.88-6.49
			L116.47,51.87z"/>
		<path class="st0" d="M4.83,59.68c-0.2-0.38-0.56-0.57-1.08-0.57c-0.29,0-0.53,0.08-0.71,0.23C2.85,59.5,2.7,59.75,2.6,60.1
			c-0.11,0.35-0.18,0.8-0.23,1.36c-0.04,0.56-0.06,1.25-0.06,2.06c0,0.86,0.03,1.56,0.09,2.1c0.06,0.53,0.15,0.95,0.27,1.24
			c0.12,0.29,0.28,0.49,0.47,0.59c0.19,0.1,0.4,0.15,0.65,0.15c0.2,0,0.39-0.03,0.57-0.1c0.18-0.07,0.33-0.21,0.46-0.42
			c0.13-0.21,0.23-0.5,0.3-0.88c0.07-0.38,0.11-0.88,0.11-1.5h2.31c0,0.62-0.05,1.21-0.14,1.76c-0.1,0.56-0.28,1.04-0.54,1.46
			c-0.26,0.42-0.63,0.74-1.11,0.98c-0.48,0.24-1.09,0.35-1.85,0.35c-0.87,0-1.55-0.14-2.07-0.42c-0.51-0.28-0.9-0.68-1.18-1.2
			c-0.27-0.52-0.45-1.15-0.53-1.87C0.04,65.03,0,64.23,0,63.36c0-0.87,0.04-1.66,0.12-2.4c0.08-0.73,0.26-1.36,0.53-1.88
			c0.27-0.52,0.67-0.93,1.18-1.22c0.51-0.29,1.2-0.44,2.07-0.44c0.82,0,1.47,0.13,1.95,0.4c0.47,0.27,0.83,0.61,1.07,1.02
			c0.24,0.41,0.38,0.85,0.44,1.33c0.06,0.48,0.09,0.92,0.09,1.34H5.13C5.13,60.66,5.03,60.06,4.83,59.68"/>
		<path class="st0" d="M12.32,65.04c-0.17,0.07-0.33,0.12-0.47,0.15c-0.45,0.1-0.77,0.26-0.96,0.48c-0.19,0.22-0.29,0.53-0.29,0.91
			c0,0.33,0.06,0.61,0.19,0.85c0.13,0.24,0.34,0.35,0.64,0.35c0.15,0,0.3-0.02,0.47-0.07c0.16-0.05,0.31-0.13,0.44-0.23
			c0.13-0.11,0.24-0.25,0.33-0.42c0.09-0.17,0.13-0.37,0.13-0.61v-1.7C12.65,64.88,12.49,64.98,12.32,65.04 M8.76,62.89
			c0-0.5,0.08-0.92,0.24-1.26c0.16-0.34,0.38-0.61,0.65-0.82c0.27-0.21,0.59-0.36,0.96-0.45c0.37-0.09,0.76-0.14,1.18-0.14
			c0.66,0,1.2,0.06,1.6,0.19c0.4,0.13,0.72,0.31,0.94,0.54s0.38,0.51,0.46,0.84s0.12,0.68,0.12,1.06v4.53
			c0,0.41,0.02,0.72,0.06,0.94c0.04,0.22,0.11,0.46,0.22,0.72h-2.11c-0.08-0.14-0.13-0.29-0.17-0.44c-0.04-0.16-0.07-0.31-0.11-0.46
			h-0.03c-0.26,0.45-0.55,0.74-0.89,0.87c-0.34,0.13-0.77,0.2-1.31,0.2c-0.38,0-0.71-0.07-0.98-0.2c-0.27-0.13-0.48-0.32-0.64-0.55
			C8.79,68.26,8.68,68,8.6,67.7c-0.07-0.29-0.11-0.58-0.11-0.87c0-0.4,0.04-0.75,0.13-1.05c0.08-0.29,0.22-0.54,0.39-0.75
			c0.18-0.21,0.4-0.38,0.67-0.52c0.27-0.14,0.6-0.26,0.98-0.37l1.25-0.34c0.33-0.08,0.56-0.2,0.69-0.35
			c0.13-0.15,0.19-0.37,0.19-0.66c0-0.33-0.08-0.59-0.23-0.78c-0.16-0.19-0.42-0.28-0.79-0.28c-0.34,0-0.6,0.1-0.77,0.3
			c-0.17,0.2-0.26,0.48-0.26,0.82v0.24H8.76V62.89z"/>
		<path class="st0" d="M18.1,66.54c0,0.37,0.1,0.67,0.3,0.9c0.2,0.23,0.48,0.34,0.86,0.34c0.34,0,0.61-0.08,0.82-0.26
			c0.2-0.17,0.3-0.43,0.3-0.77c0-0.28-0.08-0.49-0.24-0.63s-0.35-0.26-0.56-0.35l-1.56-0.56c-0.61-0.21-1.07-0.51-1.38-0.9
			c-0.31-0.39-0.46-0.89-0.46-1.5c0-0.35,0.06-0.69,0.18-1c0.12-0.31,0.3-0.59,0.56-0.82c0.26-0.24,0.58-0.42,0.99-0.56
			c0.4-0.14,0.88-0.21,1.45-0.21c1,0,1.75,0.21,2.23,0.64c0.48,0.43,0.72,1.03,0.72,1.81v0.35h-1.99c0-0.45-0.07-0.78-0.22-0.99
			c-0.14-0.21-0.4-0.31-0.76-0.31c-0.28,0-0.52,0.08-0.73,0.23c-0.21,0.15-0.31,0.39-0.31,0.7c0,0.21,0.07,0.41,0.2,0.58
			c0.13,0.17,0.39,0.31,0.76,0.43l1.33,0.45c0.69,0.23,1.19,0.54,1.47,0.92c0.29,0.38,0.43,0.89,0.43,1.55
			c0,0.46-0.08,0.86-0.24,1.19c-0.16,0.34-0.38,0.62-0.66,0.84c-0.28,0.22-0.62,0.38-1.01,0.48c-0.39,0.1-0.82,0.14-1.29,0.14
			c-0.62,0-1.14-0.06-1.55-0.18c-0.41-0.12-0.74-0.29-0.98-0.53c-0.24-0.24-0.41-0.52-0.5-0.86c-0.1-0.34-0.14-0.71-0.14-1.13v-0.3
			h1.99V66.54z"/>
		<path class="st0" d="M27.13,65.04c-0.17,0.07-0.33,0.12-0.47,0.15c-0.45,0.1-0.77,0.26-0.96,0.48c-0.19,0.22-0.29,0.53-0.29,0.91
			c0,0.33,0.06,0.61,0.19,0.85c0.13,0.24,0.34,0.35,0.64,0.35c0.15,0,0.31-0.02,0.47-0.07c0.16-0.05,0.31-0.13,0.44-0.23
			c0.13-0.11,0.24-0.25,0.33-0.42c0.09-0.17,0.13-0.37,0.13-0.61v-1.7C27.46,64.88,27.3,64.98,27.13,65.04 M23.58,62.89
			c0-0.5,0.08-0.92,0.24-1.26c0.16-0.34,0.38-0.61,0.65-0.82c0.27-0.21,0.59-0.36,0.96-0.45c0.37-0.09,0.76-0.14,1.18-0.14
			c0.66,0,1.2,0.06,1.6,0.19c0.41,0.13,0.72,0.31,0.95,0.54c0.22,0.24,0.38,0.51,0.46,0.84c0.08,0.33,0.12,0.68,0.12,1.06v4.53
			c0,0.41,0.02,0.72,0.06,0.94c0.04,0.22,0.11,0.46,0.22,0.72h-2.11c-0.07-0.14-0.13-0.29-0.17-0.44c-0.04-0.16-0.07-0.31-0.1-0.46
			h-0.03c-0.26,0.45-0.55,0.74-0.89,0.87c-0.34,0.13-0.77,0.2-1.31,0.2c-0.39,0-0.71-0.07-0.98-0.2c-0.27-0.13-0.48-0.32-0.64-0.55
			c-0.16-0.23-0.28-0.5-0.35-0.79c-0.07-0.29-0.11-0.58-0.11-0.87c0-0.4,0.04-0.75,0.13-1.05c0.08-0.29,0.22-0.54,0.39-0.75
			c0.18-0.21,0.4-0.38,0.67-0.52c0.27-0.14,0.6-0.26,0.98-0.37l1.25-0.34c0.33-0.08,0.56-0.2,0.69-0.35
			c0.13-0.15,0.19-0.37,0.19-0.66c0-0.33-0.08-0.59-0.23-0.78c-0.16-0.19-0.42-0.28-0.79-0.28c-0.34,0-0.6,0.1-0.77,0.3
			c-0.17,0.2-0.26,0.48-0.26,0.82v0.24h-1.98V62.89z"/>
		<path class="st0" d="M38.68,65.04c-0.17,0.07-0.33,0.12-0.46,0.15c-0.45,0.1-0.77,0.26-0.96,0.48c-0.19,0.22-0.29,0.53-0.29,0.91
			c0,0.33,0.06,0.61,0.19,0.85c0.13,0.24,0.34,0.35,0.64,0.35c0.15,0,0.3-0.02,0.47-0.07c0.16-0.05,0.31-0.13,0.44-0.23
			c0.13-0.11,0.24-0.25,0.33-0.42c0.09-0.17,0.13-0.37,0.13-0.61v-1.7C39.01,64.88,38.85,64.98,38.68,65.04 M35.12,62.89
			c0-0.5,0.08-0.92,0.24-1.26c0.16-0.34,0.38-0.61,0.65-0.82c0.27-0.21,0.59-0.36,0.96-0.45c0.37-0.09,0.76-0.14,1.18-0.14
			c0.66,0,1.2,0.06,1.6,0.19c0.41,0.13,0.72,0.31,0.94,0.54c0.23,0.24,0.38,0.51,0.46,0.84c0.08,0.33,0.12,0.68,0.12,1.06v4.53
			c0,0.41,0.02,0.72,0.06,0.94c0.04,0.22,0.11,0.46,0.22,0.72h-2.11c-0.08-0.14-0.13-0.29-0.17-0.44c-0.04-0.16-0.07-0.31-0.1-0.46
			h-0.03c-0.26,0.45-0.55,0.74-0.89,0.87c-0.34,0.13-0.77,0.2-1.31,0.2c-0.38,0-0.71-0.07-0.98-0.2c-0.27-0.13-0.48-0.32-0.64-0.55
			c-0.16-0.23-0.28-0.5-0.35-0.79c-0.07-0.29-0.11-0.58-0.11-0.87c0-0.4,0.04-0.75,0.13-1.05c0.09-0.29,0.22-0.54,0.39-0.75
			c0.18-0.21,0.4-0.38,0.67-0.52c0.27-0.14,0.6-0.26,0.98-0.37l1.25-0.34c0.33-0.08,0.56-0.2,0.69-0.35
			c0.13-0.15,0.19-0.37,0.19-0.66c0-0.33-0.08-0.59-0.23-0.78c-0.15-0.19-0.42-0.28-0.79-0.28c-0.34,0-0.6,0.1-0.77,0.3
			c-0.17,0.2-0.26,0.48-0.26,0.82v0.24h-1.99V62.89z"/>
		<path class="st0" d="M45.27,66.89c0.14,0.48,0.46,0.71,0.95,0.71c0.48,0,0.79-0.24,0.94-0.71c0.14-0.47,0.22-1.18,0.22-2.12
			c0-0.94-0.07-1.65-0.22-2.12c-0.14-0.48-0.46-0.71-0.94-0.71c-0.49,0-0.81,0.24-0.95,0.71c-0.14,0.48-0.22,1.18-0.22,2.12
			C45.05,65.7,45.13,66.41,45.27,66.89 M45.05,57.64v3.62h0.03c0.24-0.34,0.5-0.6,0.79-0.77c0.29-0.17,0.65-0.26,1.07-0.26
			c0.91,0,1.58,0.35,2,1.06c0.43,0.71,0.64,1.87,0.64,3.47s-0.21,2.75-0.64,3.44c-0.43,0.69-1.1,1.04-2,1.04
			c-0.45,0-0.83-0.08-1.13-0.24c-0.31-0.16-0.58-0.44-0.83-0.85h-0.03v0.91h-2.11V57.64H45.05z"/>
	</g>
	<path class="st0" d="M53.14,69.07h-2.21v-8.62h2.21V69.07z M53.14,59.4h-2.21v-1.89h2.21V59.4z"/>
	<g>
		<path class="st0" d="M58.78,62.92c-0.03-0.25-0.09-0.47-0.17-0.64c-0.08-0.18-0.19-0.31-0.33-0.4c-0.15-0.09-0.33-0.14-0.55-0.14
			c-0.22,0-0.41,0.05-0.55,0.15c-0.14,0.1-0.26,0.24-0.35,0.4c-0.08,0.17-0.15,0.35-0.18,0.55c-0.04,0.2-0.06,0.41-0.06,0.61v0.34
			h2.26C58.83,63.46,58.81,63.17,58.78,62.92 M56.58,65.79c0,0.26,0.02,0.51,0.06,0.75c0.04,0.24,0.1,0.45,0.18,0.64
			c0.09,0.19,0.2,0.34,0.34,0.45c0.14,0.11,0.31,0.17,0.51,0.17c0.37,0,0.65-0.13,0.82-0.4c0.17-0.27,0.29-0.67,0.35-1.22h1.99
			c-0.04,1-0.31,1.77-0.8,2.29c-0.49,0.52-1.26,0.78-2.32,0.78c-0.8,0-1.42-0.13-1.87-0.4c-0.45-0.27-0.78-0.62-0.99-1.06
			c-0.21-0.44-0.34-0.93-0.39-1.47c-0.05-0.54-0.07-1.09-0.07-1.63c0-0.58,0.04-1.13,0.12-1.67c0.08-0.53,0.24-1.01,0.48-1.42
			c0.24-0.42,0.58-0.75,1.03-0.99c0.45-0.25,1.05-0.37,1.79-0.37c0.64,0,1.17,0.1,1.58,0.31s0.73,0.5,0.97,0.88
			c0.23,0.38,0.39,0.84,0.48,1.38c0.08,0.54,0.13,1.14,0.13,1.8v0.5h-4.37V65.79z"/>
		<path class="st0" d="M64.22,60.46v1.15h0.03c0.22-0.42,0.5-0.75,0.82-1c0.32-0.25,0.71-0.38,1.17-0.38c0.06,0,0.13,0,0.2,0.01
			c0.07,0,0.14,0.01,0.2,0.02v2.11c-0.12-0.01-0.23-0.02-0.35-0.02c-0.11-0.01-0.23-0.01-0.34-0.01c-0.19,0-0.39,0.03-0.58,0.08
			c-0.19,0.05-0.37,0.14-0.53,0.26c-0.16,0.12-0.29,0.28-0.39,0.48c-0.1,0.2-0.14,0.44-0.14,0.73v5.17h-2.21v-8.62H64.22z"/>
		<path class="st0" d="M70.13,57.99v2.47h1.28v1.51h-1.28v4.66c0,0.34,0.05,0.58,0.15,0.73c0.1,0.14,0.31,0.22,0.63,0.22
			c0.08,0,0.17,0,0.26-0.01c0.09-0.01,0.17-0.01,0.24-0.02v1.54c-0.25,0-0.48,0.01-0.71,0.02c-0.23,0.02-0.47,0.02-0.73,0.02
			c-0.43,0-0.78-0.03-1.05-0.09c-0.27-0.06-0.48-0.18-0.62-0.35c-0.14-0.18-0.24-0.41-0.3-0.7c-0.05-0.29-0.08-0.65-0.08-1.09v-4.93
			H66.8v-1.51h1.12v-2.47H70.13z"/>
		<path class="st0" d="M75.72,65.04c-0.17,0.07-0.33,0.12-0.46,0.15c-0.45,0.1-0.77,0.26-0.96,0.48c-0.19,0.22-0.29,0.53-0.29,0.91
			c0,0.33,0.06,0.61,0.19,0.85c0.13,0.24,0.34,0.35,0.64,0.35c0.15,0,0.3-0.02,0.46-0.07c0.16-0.05,0.31-0.13,0.44-0.23
			c0.13-0.11,0.24-0.25,0.33-0.42c0.09-0.17,0.13-0.37,0.13-0.61v-1.7C76.06,64.88,75.9,64.98,75.72,65.04 M72.17,62.89
			c0-0.5,0.08-0.92,0.24-1.26c0.16-0.34,0.38-0.61,0.65-0.82c0.27-0.21,0.59-0.36,0.96-0.45c0.37-0.09,0.76-0.14,1.18-0.14
			c0.66,0,1.2,0.06,1.6,0.19c0.4,0.13,0.72,0.31,0.94,0.54c0.22,0.24,0.38,0.51,0.46,0.84c0.08,0.33,0.12,0.68,0.12,1.06v4.53
			c0,0.41,0.02,0.72,0.06,0.94c0.04,0.22,0.11,0.46,0.22,0.72h-2.11c-0.08-0.14-0.13-0.29-0.17-0.44c-0.04-0.16-0.07-0.31-0.1-0.46
			h-0.03c-0.26,0.45-0.55,0.74-0.89,0.87c-0.34,0.13-0.77,0.2-1.31,0.2c-0.38,0-0.71-0.07-0.98-0.2c-0.27-0.13-0.48-0.32-0.64-0.55
			c-0.16-0.23-0.28-0.5-0.35-0.79c-0.07-0.29-0.11-0.58-0.11-0.87c0-0.4,0.04-0.75,0.13-1.05c0.09-0.29,0.22-0.54,0.39-0.75
			c0.18-0.21,0.4-0.38,0.67-0.52c0.27-0.14,0.6-0.26,0.98-0.37l1.25-0.34c0.33-0.08,0.56-0.2,0.69-0.35
			c0.13-0.15,0.19-0.37,0.19-0.66c0-0.33-0.08-0.59-0.23-0.78c-0.16-0.19-0.42-0.28-0.79-0.28c-0.34,0-0.6,0.1-0.77,0.3
			s-0.26,0.48-0.26,0.82v0.24h-1.99V62.89z"/>
		<path class="st0" d="M87.27,65.04c-0.17,0.07-0.33,0.12-0.47,0.15c-0.45,0.1-0.77,0.26-0.96,0.48c-0.19,0.22-0.29,0.53-0.29,0.91
			c0,0.33,0.06,0.61,0.19,0.85c0.13,0.24,0.34,0.35,0.64,0.35c0.15,0,0.3-0.02,0.46-0.07c0.16-0.05,0.31-0.13,0.44-0.23
			c0.13-0.11,0.24-0.25,0.33-0.42c0.08-0.17,0.13-0.37,0.13-0.61v-1.7C87.6,64.88,87.44,64.98,87.27,65.04 M83.72,62.89
			c0-0.5,0.08-0.92,0.24-1.26c0.16-0.34,0.38-0.61,0.65-0.82c0.27-0.21,0.59-0.36,0.96-0.45c0.37-0.09,0.76-0.14,1.18-0.14
			c0.66,0,1.2,0.06,1.6,0.19c0.4,0.13,0.72,0.31,0.94,0.54c0.22,0.24,0.38,0.51,0.46,0.84c0.08,0.33,0.12,0.68,0.12,1.06v4.53
			c0,0.41,0.02,0.72,0.06,0.94c0.04,0.22,0.11,0.46,0.22,0.72h-2.11c-0.08-0.14-0.13-0.29-0.17-0.44c-0.04-0.16-0.07-0.31-0.1-0.46
			h-0.03c-0.26,0.45-0.55,0.74-0.89,0.87c-0.34,0.13-0.77,0.2-1.31,0.2c-0.38,0-0.71-0.07-0.98-0.2c-0.27-0.13-0.48-0.32-0.64-0.55
			c-0.16-0.23-0.28-0.5-0.35-0.79c-0.07-0.29-0.11-0.58-0.11-0.87c0-0.4,0.04-0.75,0.13-1.05c0.09-0.29,0.22-0.54,0.39-0.75
			c0.18-0.21,0.4-0.38,0.67-0.52c0.27-0.14,0.6-0.26,0.98-0.37l1.25-0.34c0.33-0.08,0.56-0.2,0.69-0.35
			c0.13-0.15,0.19-0.37,0.19-0.66c0-0.33-0.08-0.59-0.23-0.78c-0.16-0.19-0.42-0.28-0.79-0.28c-0.34,0-0.6,0.1-0.77,0.3
			c-0.17,0.2-0.26,0.48-0.26,0.82v0.24h-1.99V62.89z"/>
	</g>
	<rect x="91.52" y="57.64" class="st0" width="2.21" height="11.44"/>
	<g>
		<path class="st0" d="M101.81,57.99v2.47h1.28v1.51h-1.28v4.66c0,0.34,0.05,0.58,0.15,0.73c0.1,0.14,0.31,0.22,0.63,0.22
			c0.09,0,0.17,0,0.26-0.01c0.08-0.01,0.16-0.01,0.24-0.02v1.54c-0.25,0-0.48,0.01-0.71,0.02c-0.23,0.02-0.47,0.02-0.73,0.02
			c-0.43,0-0.78-0.03-1.05-0.09c-0.27-0.06-0.48-0.18-0.62-0.35c-0.14-0.18-0.24-0.41-0.3-0.7c-0.05-0.29-0.08-0.65-0.08-1.09v-4.93
			h-1.12v-1.51h1.12v-2.47H101.81z"/>
	</g>
	<path class="st0" d="M106.15,69.07h-2.21v-8.62h2.21V69.07z M106.15,59.4h-2.21v-1.89h2.21V59.4z"/>
	<g>
		<path class="st0" d="M111.79,62.92c-0.03-0.25-0.09-0.47-0.17-0.64c-0.08-0.18-0.19-0.31-0.34-0.4c-0.14-0.09-0.33-0.14-0.55-0.14
			s-0.41,0.05-0.55,0.15c-0.14,0.1-0.26,0.24-0.34,0.4c-0.09,0.17-0.15,0.35-0.18,0.55c-0.04,0.2-0.06,0.41-0.06,0.61v0.34h2.26
			C111.85,63.46,111.82,63.17,111.79,62.92 M109.6,65.79c0,0.26,0.02,0.51,0.06,0.75c0.04,0.24,0.1,0.45,0.18,0.64
			c0.08,0.19,0.2,0.34,0.34,0.45c0.14,0.11,0.31,0.17,0.51,0.17c0.37,0,0.64-0.13,0.82-0.4c0.17-0.27,0.29-0.67,0.35-1.22h1.99
			c-0.04,1-0.31,1.77-0.8,2.29c-0.49,0.52-1.26,0.78-2.32,0.78c-0.8,0-1.43-0.13-1.87-0.4c-0.45-0.27-0.78-0.62-0.99-1.06
			c-0.21-0.44-0.35-0.93-0.39-1.47c-0.05-0.54-0.07-1.09-0.07-1.63c0-0.58,0.04-1.13,0.12-1.67c0.08-0.53,0.24-1.01,0.48-1.42
			c0.24-0.42,0.58-0.75,1.03-0.99c0.45-0.25,1.05-0.37,1.79-0.37c0.64,0,1.17,0.1,1.58,0.31c0.41,0.21,0.73,0.5,0.97,0.88
			c0.23,0.38,0.39,0.84,0.48,1.38c0.09,0.54,0.13,1.14,0.13,1.8v0.5h-4.37V65.79z"/>
		<path class="st0" d="M117.24,60.46v0.88h0.03c0.28-0.4,0.59-0.68,0.94-0.85c0.35-0.17,0.76-0.26,1.24-0.26
			c0.51,0,0.94,0.12,1.29,0.35c0.35,0.23,0.58,0.58,0.7,1.02h0.03c0.17-0.46,0.45-0.8,0.82-1.03c0.38-0.23,0.83-0.35,1.35-0.35
			c0.74,0,1.28,0.22,1.62,0.67c0.35,0.44,0.52,1.08,0.52,1.92v6.26h-2.21v-6.02c0-0.36-0.07-0.64-0.2-0.83
			c-0.13-0.19-0.36-0.29-0.67-0.29c-0.35,0-0.63,0.12-0.84,0.35s-0.31,0.61-0.31,1.12v5.67h-2.21v-6.02c0-0.36-0.07-0.64-0.2-0.83
			c-0.13-0.19-0.36-0.29-0.66-0.29c-0.35,0-0.63,0.12-0.84,0.35s-0.31,0.61-0.31,1.12v5.67h-2.21v-8.62H117.24z"/>
		<path class="st0" d="M129.69,66.89c0.14,0.48,0.46,0.71,0.95,0.71c0.48,0,0.79-0.24,0.94-0.71c0.14-0.47,0.22-1.18,0.22-2.12
			c0-0.94-0.07-1.65-0.22-2.12c-0.14-0.48-0.46-0.71-0.94-0.71c-0.49,0-0.81,0.24-0.95,0.71c-0.14,0.47-0.22,1.18-0.22,2.12
			C129.47,65.7,129.55,66.41,129.69,66.89 M129.38,60.46v0.91h0.03c0.25-0.41,0.52-0.7,0.82-0.87c0.31-0.18,0.68-0.27,1.13-0.27
			c0.91,0,1.57,0.36,2,1.07s0.64,1.87,0.64,3.47c0,1.6-0.21,2.75-0.64,3.44c-0.43,0.69-1.1,1.04-2,1.04c-0.42,0-0.77-0.08-1.07-0.23
			c-0.29-0.16-0.56-0.4-0.79-0.75h-0.03v3.57h-2.21V60.46H129.38z"/>
		<path class="st0" d="M137.23,65.98c0.02,0.38,0.07,0.69,0.15,0.96s0.2,0.47,0.36,0.62c0.16,0.15,0.37,0.22,0.64,0.22
			c0.45,0,0.76-0.23,0.93-0.7c0.17-0.47,0.26-1.24,0.26-2.32c0-1.08-0.09-1.85-0.26-2.32c-0.17-0.47-0.48-0.71-0.93-0.71
			c-0.27,0-0.48,0.08-0.64,0.22c-0.16,0.15-0.28,0.36-0.36,0.62c-0.08,0.27-0.13,0.59-0.15,0.96c-0.02,0.38-0.03,0.78-0.03,1.22
			C137.2,65.2,137.21,65.61,137.23,65.98 M135.16,62.81c0.12-0.57,0.31-1.04,0.58-1.42c0.27-0.38,0.62-0.67,1.05-0.87
			c0.43-0.2,0.96-0.3,1.59-0.3c0.66-0.01,1.21,0.08,1.65,0.26c0.44,0.19,0.78,0.47,1.04,0.86c0.26,0.38,0.44,0.86,0.54,1.42
			c0.11,0.57,0.16,1.23,0.16,1.99c0,0.74-0.06,1.39-0.18,1.95c-0.12,0.57-0.31,1.04-0.58,1.42c-0.27,0.38-0.62,0.66-1.05,0.84
			c-0.43,0.18-0.96,0.27-1.59,0.27c-0.66,0.01-1.21-0.07-1.65-0.25c-0.44-0.18-0.78-0.45-1.04-0.83c-0.26-0.38-0.44-0.85-0.55-1.43
			c-0.11-0.57-0.16-1.23-0.16-1.98C134.98,64.03,135.04,63.38,135.16,62.81"/>
	</g>
</g>
</svg>
