<svg version="1.1" id="Capa_1" xmlns="http://www.w3.org/2000/svg" x="0" y="0" viewBox="0 0 72.58 72.58" xml:space="preserve"><style>.st0{fill:#d77a0f}</style><path class="st0" d="M8.69 39.36h27.08v27.08L8.69 39.36zm30.67 0h29.62v29.62H39.36V39.36zm0-30.67l27.07 27.07H39.36V8.69zM35.76 0v35.76H0l36.82 36.82h35.77V36.82L35.76 0z"/><path transform="rotate(-44.992 54.168 54.172)" class="st0" d="M30.68 52.37h46.98v3.6H30.68z"/><path transform="rotate(-44.992 54.173 20.951)" class="st0" d="M30.68 19.15h46.99v3.6H30.68z"/><path transform="rotate(-45.001 20.95 20.95)" class="st0" d="M19.15-2.55h3.6v46.99h-3.6z"/><path class="st0" d="M2.54 20.95l.01-18.41h18.4v3.6H6.14l-.01 14.81z"/></svg>