<svg xmlns="http://www.w3.org/2000/svg" viewBox="0 0 141.78 71.84"><path d="M98.08 23.48L91.63 8.95 94.71 2h12.91l-9.54 21.48zM87.25 47.85c-.57 1.25-1.52 2.03-2.48 2.03H55.95c-.96 0-1.91-.77-2.48-2.02L33.09 2H46l17.72 39.88.03-.01-.02.01a7.268 7.268 0 006.63 4.29 7.274 7.274 0 006.63-4.31l5.99-13.47 6.46 14.53-2.19 4.93zm-21.7-37.03c.51-1.14 1.42-2.1 2.65-2.66.7-.31 1.44-.46 2.16-.46 2.01 0 3.93 1.16 4.8 3.11l6.73 15.13-6.72 15.12a5.282 5.282 0 01-2.65 2.66 5.28 5.28 0 01-6.97-2.65l-6.72-15.13 6.72-15.12zm50.92 41.05h17.29L110.7 0H93.41l-2.88 6.48-1.46-3.28c-.86-1.91-2.46-3.2-4.3-3.2H55.95c-1.83 0-3.44 1.28-4.3 3.2l-1.46 3.29L47.3 0H30.01L6.96 51.87h17.29l14.41-32.42 2.88 6.48-11.53 25.94H47.3l2.88-6.48 1.46 3.29c.87 1.91 2.47 3.2 4.3 3.2h28.82c1.84 0 3.44-1.29 4.31-3.21l1.46-3.27 2.88 6.48h17.29L99.18 25.94l2.88-6.49 14.41 32.42zM4.83 59.68c-.2-.38-.56-.57-1.08-.57-.29 0-.53.08-.71.23-.19.16-.34.41-.44.76-.11.35-.18.8-.23 1.36-.04.56-.06 1.25-.06 2.06 0 .86.03 1.56.09 2.1.06.53.15.95.27 1.24.12.29.28.49.47.59.19.1.4.15.65.15.2 0 .39-.03.57-.1.18-.07.33-.21.46-.42s.23-.5.3-.88c.07-.38.11-.88.11-1.5h2.31c0 .62-.05 1.21-.14 1.76-.1.56-.28 1.04-.54 1.46-.26.42-.63.74-1.11.98-.48.24-1.09.35-1.85.35-.87 0-1.55-.14-2.07-.42-.51-.28-.9-.68-1.18-1.2-.27-.52-.45-1.15-.53-1.87-.08-.73-.12-1.53-.12-2.4 0-.87.04-1.66.12-2.4.08-.73.26-1.36.53-1.88.27-.52.67-.93 1.18-1.22.51-.29 1.2-.44 2.07-.44.82 0 1.47.13 1.95.4.47.27.83.61 1.07 1.02.24.41.38.85.44 1.33.06.48.09.92.09 1.34H5.13c0-.85-.1-1.45-.3-1.83m7.49 5.36c-.17.07-.33.12-.47.15-.45.1-.77.26-.96.48-.19.22-.29.53-.29.91 0 .33.06.61.19.85s.34.35.64.35c.15 0 .3-.02.47-.07.16-.05.31-.13.44-.23a1.279 1.279 0 00.46-1.03v-1.7c-.15.13-.31.23-.48.29m-3.56-2.15c0-.5.08-.92.24-1.26.16-.34.38-.61.65-.82.27-.21.59-.36.96-.45.37-.09.76-.14 1.18-.14.66 0 1.2.06 1.6.19.4.13.72.31.94.54s.38.51.46.84.12.68.12 1.06v4.53c0 .41.02.72.06.94.04.22.11.46.22.72h-2.11a1.82 1.82 0 01-.17-.44c-.04-.16-.07-.31-.11-.46h-.03c-.26.45-.55.74-.89.87-.34.13-.77.2-1.31.2-.38 0-.71-.07-.98-.2s-.48-.32-.64-.55c-.16-.2-.27-.46-.35-.76-.07-.29-.11-.58-.11-.87 0-.4.04-.75.13-1.05.08-.29.22-.54.39-.75.18-.21.4-.38.67-.52s.6-.26.98-.37l1.25-.34c.33-.08.56-.2.69-.35.13-.15.19-.37.19-.66 0-.33-.08-.59-.23-.78-.16-.19-.42-.28-.79-.28-.34 0-.6.1-.77.3-.17.2-.26.48-.26.82v.24H8.76v-.2zm9.34 3.65c0 .37.1.67.3.9.2.23.48.34.86.34.34 0 .61-.08.82-.26.2-.17.3-.43.3-.77 0-.28-.08-.49-.24-.63s-.35-.26-.56-.35l-1.56-.56c-.61-.21-1.07-.51-1.38-.9-.31-.39-.46-.89-.46-1.5 0-.35.06-.69.18-1 .12-.31.3-.59.56-.82.26-.24.58-.42.99-.56.4-.14.88-.21 1.45-.21 1 0 1.75.21 2.23.64.48.43.72 1.03.72 1.81v.35h-1.99c0-.45-.07-.78-.22-.99-.14-.21-.4-.31-.76-.31-.28 0-.52.08-.73.23-.21.15-.31.39-.31.7 0 .21.07.41.2.58.13.17.39.31.76.43l1.33.45c.69.23 1.19.54 1.47.92.29.38.43.89.43 1.55 0 .46-.08.86-.24 1.19-.16.34-.38.62-.66.84-.28.22-.62.38-1.01.48-.39.1-.82.14-1.29.14-.62 0-1.14-.06-1.55-.18-.41-.12-.74-.29-.98-.53-.24-.24-.41-.52-.5-.86-.1-.34-.14-.71-.14-1.13v-.3h1.99v.31zm9.03-1.5c-.17.07-.33.12-.47.15-.45.1-.77.26-.96.48-.19.22-.29.53-.29.91 0 .33.06.61.19.85s.34.35.64.35c.15 0 .31-.02.47-.07.16-.05.31-.13.44-.23a1.279 1.279 0 00.46-1.03v-1.7c-.15.13-.31.23-.48.29m-3.55-2.15c0-.5.08-.92.24-1.26.16-.34.38-.61.65-.82.27-.21.59-.36.96-.45.37-.09.76-.14 1.18-.14.66 0 1.2.06 1.6.19.41.13.72.31.95.54.22.24.38.51.46.84.08.33.12.68.12 1.06v4.53c0 .41.02.72.06.94.04.22.11.46.22.72h-2.11c-.07-.14-.13-.29-.17-.44-.04-.16-.07-.31-.1-.46h-.03c-.26.45-.55.74-.89.87-.34.13-.77.2-1.31.2-.39 0-.71-.07-.98-.2s-.48-.32-.64-.55c-.16-.23-.28-.5-.35-.79-.07-.29-.11-.58-.11-.87 0-.4.04-.75.13-1.05.08-.29.22-.54.39-.75.18-.21.4-.38.67-.52s.6-.26.98-.37l1.25-.34c.33-.08.56-.2.69-.35.13-.15.19-.37.19-.66 0-.33-.08-.59-.23-.78-.16-.19-.42-.28-.79-.28-.34 0-.6.1-.77.3-.17.2-.26.48-.26.82v.24H23.6v-.17zm15.1 2.15c-.17.07-.33.12-.46.15-.45.1-.77.26-.96.48-.19.22-.29.53-.29.91 0 .33.06.61.19.85s.34.35.64.35c.15 0 .3-.02.47-.07.16-.05.31-.13.44-.23a1.279 1.279 0 00.46-1.03v-1.7c-.16.13-.32.23-.49.29m-3.56-2.15c0-.5.08-.92.24-1.26.16-.34.38-.61.65-.82.27-.21.59-.36.96-.45.37-.09.76-.14 1.18-.14.66 0 1.2.06 1.6.19.41.13.72.31.94.54.23.24.38.51.46.84.08.33.12.68.12 1.06v4.53c0 .41.02.72.06.94.04.22.11.46.22.72h-2.11a1.82 1.82 0 01-.17-.44c-.04-.16-.07-.31-.1-.46h-.03c-.26.45-.55.74-.89.87-.34.13-.77.2-1.31.2-.38 0-.71-.07-.98-.2s-.48-.32-.64-.55c-.16-.23-.28-.5-.35-.79-.07-.29-.11-.58-.11-.87 0-.4.04-.75.13-1.05.09-.29.22-.54.39-.75.18-.21.4-.38.67-.52s.6-.26.98-.37l1.25-.34c.33-.08.56-.2.69-.35.13-.15.19-.37.19-.66 0-.33-.08-.59-.23-.78-.15-.19-.42-.28-.79-.28-.34 0-.6.1-.77.3-.17.2-.26.48-.26.82v.24h-1.99v-.17zm10.15 4c.14.48.46.71.95.71.48 0 .79-.24.94-.71.14-.47.22-1.18.22-2.12 0-.94-.07-1.65-.22-2.12-.14-.48-.46-.71-.94-.71-.49 0-.81.24-.95.71-.14.48-.22 1.18-.22 2.12 0 .93.08 1.64.22 2.12m-.22-9.25v3.62h.03c.24-.34.5-.6.79-.77.29-.17.65-.26 1.07-.26.91 0 1.58.35 2 1.06.43.71.64 1.87.64 3.47s-.21 2.75-.64 3.44c-.43.69-1.1 1.04-2 1.04-.45 0-.83-.08-1.13-.24-.31-.16-.58-.44-.83-.85h-.03v.91h-2.11V57.64h2.21zm8.09 11.43h-2.21v-8.62h2.21v8.62zm0-9.67h-2.21v-1.89h2.21v1.89zm5.64 3.52c-.03-.25-.09-.47-.17-.64a.883.883 0 00-.33-.4c-.15-.09-.33-.14-.55-.14-.22 0-.41.05-.55.15-.14.1-.26.24-.35.4-.08.17-.15.35-.18.55-.04.2-.06.41-.06.61v.34h2.26c-.02-.33-.04-.62-.07-.87m-2.2 2.87c0 .26.02.51.06.75.04.24.1.45.18.64.09.19.2.34.34.45.14.11.31.17.51.17.37 0 .65-.13.82-.4.17-.27.29-.67.35-1.22h1.99c-.04 1-.31 1.77-.8 2.29-.49.52-1.26.78-2.32.78-.8 0-1.42-.13-1.87-.4a2.46 2.46 0 01-.99-1.06c-.21-.44-.34-.93-.39-1.47-.05-.54-.07-1.09-.07-1.63 0-.58.04-1.13.12-1.67.08-.53.24-1.01.48-1.42.24-.42.58-.75 1.03-.99.45-.25 1.05-.37 1.79-.37.64 0 1.17.1 1.58.31s.73.5.97.88c.23.38.39.84.48 1.38.08.54.13 1.14.13 1.8v.5H56.6v.68zm7.64-5.33v1.15h.03c.22-.42.5-.75.82-1 .32-.25.71-.38 1.17-.38.06 0 .13 0 .2.01.07 0 .14.01.2.02v2.11c-.12-.01-.23-.02-.35-.02-.11-.01-.23-.01-.34-.01-.19 0-.39.03-.58.08-.19.05-.37.14-.53.26-.16.12-.29.28-.39.48-.1.2-.14.44-.14.73v5.17H62.1v-8.62h2.12zm5.91-2.47v2.47h1.28v1.51h-1.28v4.66c0 .34.05.58.15.73.1.14.31.22.63.22.08 0 .17 0 .26-.01s.17-.01.24-.02v1.54c-.25 0-.48.01-.71.02-.23.02-.47.02-.73.02-.43 0-.78-.03-1.05-.09s-.48-.18-.62-.35c-.14-.18-.24-.41-.3-.7a6.49 6.49 0 01-.08-1.09v-4.93H66.8v-1.51h1.12v-2.47h2.21zm5.59 7.05c-.17.07-.33.12-.46.15-.45.1-.77.26-.96.48-.19.22-.29.53-.29.91 0 .33.06.61.19.85s.34.35.64.35c.15 0 .3-.02.46-.07.16-.05.31-.13.44-.23a1.279 1.279 0 00.46-1.03v-1.7c-.14.13-.3.23-.48.29m-3.55-2.15c0-.5.08-.92.24-1.26.16-.34.38-.61.65-.82.27-.21.59-.36.96-.45.37-.09.76-.14 1.18-.14.66 0 1.2.06 1.6.19.4.13.72.31.94.54.22.24.38.51.46.84.08.33.12.68.12 1.06v4.53c0 .41.02.72.06.94.04.22.11.46.22.72h-2.11a1.82 1.82 0 01-.17-.44c-.04-.16-.07-.31-.1-.46h-.03c-.26.45-.55.74-.89.87-.34.13-.77.2-1.31.2-.38 0-.71-.07-.98-.2s-.48-.32-.64-.55c-.16-.23-.28-.5-.35-.79-.07-.29-.11-.58-.11-.87 0-.4.04-.75.13-1.05.09-.29.22-.54.39-.75.18-.21.4-.38.67-.52s.6-.26.98-.37l1.25-.34c.33-.08.56-.2.69-.35.13-.15.19-.37.19-.66 0-.33-.08-.59-.23-.78-.16-.19-.42-.28-.79-.28-.34 0-.6.1-.77.3s-.26.48-.26.82v.24h-1.99v-.17zm15.1 2.15c-.17.07-.33.12-.47.15-.45.1-.77.26-.96.48-.19.22-.29.53-.29.91 0 .33.06.61.19.85s.34.35.64.35c.15 0 .3-.02.46-.07.16-.05.31-.13.44-.23.13-.11.24-.25.33-.42.08-.17.13-.37.13-.61v-1.7c-.14.13-.3.23-.47.29m-3.55-2.15c0-.5.08-.92.24-1.26.16-.34.38-.61.65-.82.27-.21.59-.36.96-.45.37-.09.76-.14 1.18-.14.66 0 1.2.06 1.6.19.4.13.72.31.94.54.22.24.38.51.46.84.08.33.12.68.12 1.06v4.53c0 .41.02.72.06.94.04.22.11.46.22.72h-2.11a1.82 1.82 0 01-.17-.44c-.04-.16-.07-.31-.1-.46h-.03c-.26.45-.55.74-.89.87-.34.13-.77.2-1.31.2-.38 0-.71-.07-.98-.2s-.48-.32-.64-.55c-.16-.23-.28-.5-.35-.79-.07-.29-.11-.58-.11-.87 0-.4.04-.75.13-1.05.09-.29.22-.54.39-.75.18-.21.4-.38.67-.52s.6-.26.98-.37l1.25-.34c.33-.08.56-.2.69-.35.13-.15.19-.37.19-.66 0-.33-.08-.59-.23-.78-.16-.19-.42-.28-.79-.28-.34 0-.6.1-.77.3-.17.2-.26.48-.26.82v.24h-1.99v-.17zm7.8-5.25h2.21v11.44h-2.21zm10.29.35v2.47h1.28v1.51h-1.28v4.66c0 .34.05.58.15.73.1.14.31.22.63.22.09 0 .17 0 .26-.01.08-.01.16-.01.24-.02v1.54c-.25 0-.48.01-.71.02-.23.02-.47.02-.73.02-.43 0-.78-.03-1.05-.09s-.48-.18-.62-.35c-.14-.18-.24-.41-.3-.7a6.49 6.49 0 01-.08-1.09v-4.93h-1.12v-1.51h1.12v-2.47h2.21zm4.34 11.08h-2.21v-8.62h2.21v8.62zm0-9.67h-2.21v-1.89h2.21v1.89zm5.64 3.52c-.03-.25-.09-.47-.17-.64a.843.843 0 00-.34-.4c-.14-.09-.33-.14-.55-.14s-.41.05-.55.15c-.14.1-.26.24-.34.4-.09.17-.15.35-.18.55-.04.2-.06.41-.06.61v.34h2.26c-.01-.33-.04-.62-.07-.87m-2.19 2.87c0 .26.02.51.06.75.04.24.1.45.18.64.08.19.2.34.34.45.14.11.31.17.51.17.37 0 .64-.13.82-.4.17-.27.29-.67.35-1.22h1.99c-.04 1-.31 1.77-.8 2.29-.49.52-1.26.78-2.32.78-.8 0-1.43-.13-1.87-.4a2.46 2.46 0 01-.99-1.06c-.21-.44-.35-.93-.39-1.47-.05-.54-.07-1.09-.07-1.63 0-.58.04-1.13.12-1.67.08-.53.24-1.01.48-1.42.24-.42.58-.75 1.03-.99.45-.25 1.05-.37 1.79-.37.64 0 1.17.1 1.58.31.41.21.73.5.97.88.23.38.39.84.48 1.38.09.54.13 1.14.13 1.8v.5h-4.37v.68zm7.64-5.33v.88h.03c.28-.4.59-.68.94-.85.35-.17.76-.26 1.24-.26.51 0 .94.12 1.29.35.35.23.58.58.7 1.02h.03c.17-.46.45-.8.82-1.03.38-.23.83-.35 1.35-.35.74 0 1.28.22 1.62.67.35.44.52 1.08.52 1.92v6.26h-2.21v-6.02c0-.36-.07-.64-.2-.83-.13-.19-.36-.29-.67-.29-.35 0-.63.12-.84.35s-.31.61-.31 1.12v5.67h-2.21v-6.02c0-.36-.07-.64-.2-.83-.13-.19-.36-.29-.66-.29-.35 0-.63.12-.84.35s-.31.61-.31 1.12v5.67h-2.21v-8.62h2.12zm12.45 6.43c.14.48.46.71.95.71.48 0 .79-.24.94-.71.14-.47.22-1.18.22-2.12 0-.94-.07-1.65-.22-2.12-.14-.48-.46-.71-.94-.71-.49 0-.81.24-.95.71-.14.47-.22 1.18-.22 2.12 0 .93.08 1.64.22 2.12m-.31-6.43v.91h.03c.25-.41.52-.7.82-.87.31-.18.68-.27 1.13-.27.91 0 1.57.36 2 1.07s.64 1.87.64 3.47-.21 2.75-.64 3.44c-.43.69-1.1 1.04-2 1.04-.42 0-.77-.08-1.07-.23-.29-.16-.56-.4-.79-.75h-.03v3.57h-2.21V60.46h2.12zm7.85 5.52c.02.38.07.69.15.96s.2.47.36.62c.16.15.37.22.64.22.45 0 .76-.23.93-.7.17-.47.26-1.24.26-2.32 0-1.08-.09-1.85-.26-2.32-.17-.47-.48-.71-.93-.71-.27 0-.48.08-.64.22-.16.15-.28.36-.36.62-.08.27-.13.59-.15.96-.02.38-.03.78-.03 1.22 0 .45.01.86.03 1.23m-2.07-3.17c.12-.57.31-1.04.58-1.42.27-.38.62-.67 1.05-.87.43-.2.96-.3 1.59-.3.66-.01 1.21.08 1.65.26.44.19.78.47 1.04.86.26.38.44.86.54 1.42.11.57.16 1.23.16 1.99 0 .74-.06 1.39-.18 1.95-.12.57-.31 1.04-.58 1.42-.27.38-.62.66-1.05.84-.43.18-.96.27-1.59.27-.66.01-1.21-.07-1.65-.25-.44-.18-.78-.45-1.04-.83-.26-.38-.44-.85-.55-1.43-.11-.57-.16-1.23-.16-1.98.01-.71.07-1.36.19-1.93" fill="#fff"/></svg>